<svg class="icon" viewBox="0 0 1024 1024" xmlns="http://www.w3.org/2000/svg" ><path d="M513.824 1022.624a475.988 475.988 0 0 0 60.83-4 503.155 503.155 0 0 0 134.237-36.83 528.883 528.883 0 0 0 161.82-108.51A511.251 511.251 0 0 0 974.804 727.08c21.728-46.815 37.087-97.022 43.52-148.317 6.367-49.502 5.759-100.093-1.92-149.276a511.603 511.603 0 0 0-33.824-118.94 476.75 476.75 0 0 0-36.447-68.991C896.31 163.19 824.056 100.15 740.923 58.04a549.074 549.074 0 0 0-92.67-37.087h-.224c5.087 2.688 10.24 5.632 14.72 8.576 5.12 3.168 10.207 6.24 14.975 9.6a381.11 381.11 0 0 1 66.526 56.734c45.343 48.863 76.67 108.702 94.622 172.412 12.127 41.887 18.527 85.246 21.12 128.733 1.887 31.711 1.887 63.614-2.017 95.101-6.368 54.175-23.647 107.102-52.382 153.437a319.224 319.224 0 0 1-81.182 88.925c-53.087 39.583-122.75 63.23-189.276 47.52a166.46 166.46 0 0 1-31.903-11.009 198.971 198.971 0 0 1-33.247-19.167 259.45 259.45 0 0 1-53.087-47.199 277.433 277.433 0 0 1-44.766-74.526 314.072 314.072 0 0 1-21.088-108.381c-1.28-54.303 9.6-108.926 36.447-156.572a274.617 274.617 0 0 1 70.942-81.822c9.6-7.584 19.808-14.208 30.048-20.448l.672-.288a218.81 218.81 0 0 0-61.47-5.12 211.77 211.77 0 0 0-52.384 10.208c-15.327 5.12-30.047 11.552-43.486 19.2-10.88 6.367-21.664 13.44-31.264 21.12-8.991 7.679-17.92 15.327-26.239 23.679-47.903 49.182-75.422 114.429-86.27 181.595-6.4 41.503-6.4 83.678-3.872 125.917 4.48 59.486 16.672 118.877 40.32 173.275a363.287 363.287 0 0 0 57.502 92.702 347.735 347.735 0 0 0 133.628 95.198c28.8 11.551 59.487 19.84 90.142 23.039 3.168.64 6.368.64 8.928.64l-.896-1.376zm-125.18-16.96a173.084 173.084 0 0 1-19.2-9.727c-6.368-3.552-12.8-7.168-19.168-11.04a363.415 363.415 0 0 1-67.806-54.399c-46.687-48.542-77.95-109.533-95.87-174.107-12.127-44.127-18.56-89.694-21.12-135.325a517.01 517.01 0 0 1 1.953-88.83c5.76-53.63 21.12-106.717 47.967-152.732a293.849 293.849 0 0 1 76.062-87.581 265.945 265.945 0 0 1 69.662-38.4 228.538 228.538 0 0 1 150.268-1.92c1.248 0 1.248 0 1.92 1.28.64.64 1.92.64 2.56 1.28 1.92.672 4.448 1.92 7.04 3.168 10.207 5.12 20.447 11.552 30.047 17.92a268.537 268.537 0 0 1 89.47 106.75c17.92 39.006 26.239 82.525 26.911 125.34.608 46.047-7.68 92.03-27.52 134.237a273.913 273.913 0 0 1-112.54 120.829c3.84 1.28 7.68 1.92 11.551 3.2 9.6 1.887 19.168 3.167 29.344 3.167 62.622 1.92 123.388-28.127 168.091-70.27 8.32-7.68 16-16 23.04-24.96 9.6-11.519 18.56-23.007 26.207-35.102 10.208-16 18.56-32 26.207-49.247 9.632-23.007 17.248-46.687 21.728-71.006 8.352-42.847 8.992-86.27 6.368-129.117-5.76-86.27-28.704-172.572-78.59-244.218-7.68-10.847-15.328-21.087-23.68-30.687a423.99 423.99 0 0 0-45.343-44.127c-17.92-14.72-37.759-28.127-58.142-39.039a422.901 422.901 0 0 0-72.19-25.503l-12.8-2.56c-8.928-1.28-17.92-1.888-27.04-2.56-13.855-.64-28.543-.416-43.294.672-30.047 1.92-60.255 6.816-90.11 14.368C247.431 52.377 122.186 152.15 55.5 284.563A505.043 505.043 0 0 0 10.189 418.19 503.86 503.86 0 0 0 5.74 579.243c5.12 43.52 15.967 86.302 33.183 127.005 9.696 24.32 21.791 47.967 35.2 70.302 46.686 76.062 114.46 138.077 192.41 180.892 29.343 16.671 60.063 29.439 92.03 40.319 9.632 3.168 19.2 6.368 29.407 8.927l.672-1.024z"/></svg>