<svg class="icon" viewBox="0 0 1024 1024" xmlns="http://www.w3.org/2000/svg" ><path d="M874.667 251.733H586.904c-11.757 0-21.334-9.576-21.334-21.333v-59.733H460.326V230.4c0 11.757-9.576 21.333-21.333 21.333h-289.66c-11.757 0-21.333-9.576-21.333-21.333s9.576-21.333 21.333-21.333H417.66v-59.734c0-11.757 9.577-21.333 21.334-21.333h147.91c11.758 0 21.334 9.576 21.334 21.333v59.734h266.43c11.757 0 21.333 9.576 21.333 21.333s-9.576 21.333-21.333 21.333zm-112.83 643.698H262.163c-24.273 0-44.089-19.816-44.089-44.089V330.81c0-11.757 9.576-21.333 21.333-21.333s21.334 9.576 21.334 21.333v520.533c0 .759.663 1.422 1.422 1.422h499.674c.759 0 1.422-.663 1.422-1.422V330.81c0-11.757 9.577-21.333 21.334-21.333s21.333 9.576 21.333 21.333v520.533c0 24.368-19.816 44.09-44.089 44.09z"/><path d="M369.778 766.673c-11.757 0-21.334-9.577-21.334-21.334V363.046c0-11.757 9.577-21.333 21.334-21.333s21.333 9.576 21.333 21.333v382.293c0 11.852-9.576 21.334-21.333 21.334zm142.222 0c-11.757 0-21.333-9.577-21.333-21.334V363.046c0-11.757 9.576-21.333 21.333-21.333s21.333 9.576 21.333 21.333v382.293c0 11.852-9.576 21.334-21.333 21.334zm142.222 0c-11.757 0-21.333-9.577-21.333-21.334V363.046c0-11.757 9.576-21.333 21.333-21.333s21.334 9.576 21.334 21.333v382.293c0 11.852-9.577 21.334-21.334 21.334z"/></svg>