<svg class="icon" viewBox="0 0 1024 1024" xmlns="http://www.w3.org/2000/svg"><path d="M950.815 129.536l-56.463-56.525a92.16 92.16 0 0 0-130.294 0l-131.072 131.174-63.355-63.386L444.293 266.24l52.224 52.224-357.847 357.990a131.441 131.441 0 0 0-38.349 85.811l-20.838 20.787A114.217 114.217 0 0 0 240.947 944.64l20.818-20.890a130.642 130.642 0 0 0 85.852-38.298l357.847-357.990 52.224 52.224 125.348-125.338-63.345-63.386 131.072-131.072a92.16 92.16 0 0 0 0.051-130.355zM289.741 827.494a49.848 49.848 0 0 1-57.088 9.626l-49.572 49.562a32.307 32.307 0 0 1-45.711-45.670l49.551-49.664a49.879 49.879 0 0 1 9.605-57.037l357.847-357.990 93.184 93.286z"/></svg>