<svg class="icon" viewBox="0 0 1024 1024" xmlns="http://www.w3.org/2000/svg"><path d="M502.182 29.636a479.292 479.292 0 0 0-481.28 481.28 479.292 479.292 0 0 0 481.28 481.28c42.827 0 80.233-37.527 80.233-80.234 0-21.443-5.3-37.586-21.263-53.61-10.842-16.082-21.444-32.104-21.444-53.368 0-42.827 37.406-80.233 80.294-80.233h96.256c149.745 0 267.324-117.7 267.324-267.445-.12-235.158-214.076-427.67-481.4-427.67m-294.07 481.28c-42.826 0-80.232-37.527-80.232-80.234 0-42.767 37.406-80.293 80.233-80.293 42.827 0 80.233 37.466 80.233 80.293-.12 42.707-37.526 80.234-80.233 80.234M368.52 296.96c-42.828 0-80.294-37.346-80.294-80.233 0-42.707 37.466-80.234 80.294-80.234 42.706 0 80.233 37.406 80.233 80.234 0 42.827-37.406 80.233-80.233 80.233m267.324 0c-42.767 0-80.234-37.346-80.234-80.233 0-42.707 37.406-80.234 80.234-80.234 42.767 0 80.293 37.406 80.293 80.234 0 42.827-37.466 80.233-80.293 80.233M796.25 510.916c-42.767 0-80.233-37.527-80.233-80.234 0-42.767 37.346-80.293 80.233-80.293 42.828 0 80.234 37.466 80.234 80.293 0 42.707-37.406 80.234-80.234 80.234"/></svg>