<svg class="icon" viewBox="0 0 1025 1024" xmlns="http://www.w3.org/2000/svg" ><path d="M928.01 416.01c-28.426 0-53.965 12.37-71.536 32.01H666.522l134.307-134.307c26.317 1.454 53.105-7.844 73.216-27.956 37.5-37.498 37.5-98.283 0-135.761s-98.283-37.5-135.761 0c-20.112 20.11-29.41 46.899-27.956 73.216L576.02 357.519V167.567c19.64-17.571 32.01-43.11 32.01-71.536 0-53.023-42.987-96.01-96.01-96.01s-96.01 42.987-96.01 96.01c0 28.426 12.37 53.965 32.01 71.536V357.52L313.713 223.212c1.454-26.317-7.865-53.105-27.956-73.216-37.498-37.5-98.283-37.5-135.761 0s-37.5 98.283 0 135.761c20.11 20.112 46.899 29.41 73.216 27.956L357.54 448.02H167.588c-17.572-19.64-43.11-32.01-71.537-32.01-53.023 0-96.01 42.988-96.01 96.01s42.987 96.01 96.01 96.01c28.426 0 53.965-12.37 71.537-32.01H357.54L223.232 710.328c-26.317-1.454-53.105 7.844-73.216 27.956-37.499 37.498-37.499 98.283 0 135.761s98.284 37.5 135.762 0c20.111-20.11 29.41-46.899 27.955-73.216l134.308-134.328v189.952c-19.64 17.572-32.01 43.11-32.01 71.537 0 53.022 42.987 96.01 96.01 96.01s96.01-42.988 96.01-96.01c0-28.426-12.37-53.965-32.01-71.537V666.501L710.349 800.81c-1.454 26.317 7.844 53.105 27.955 73.216 37.499 37.499 98.284 37.499 135.762 0s37.499-98.284 0-135.762c-20.111-20.111-46.9-29.41-73.216-27.955L666.522 576h189.952c17.571 19.64 43.11 32.01 71.536 32.01 53.023 0 96.01-42.987 96.01-96.01s-42.987-96.01-96.01-96.01z"/></svg>